<svg xmlns="http://www.w3.org/2000/svg" xmlns:xlink="http://www.w3.org/1999/xlink" width="1024" height="1024" viewBox="0 0 1024 1024" fill="none"><g opacity="0.3"><path    stroke="rgba(16, 22, 31, 1.00)" stroke-width="35" stroke-linejoin="round" stroke-linecap="round"  d="M170.667 256L554.666 256M383.999 170.667L383.999 256M511.999 256C511.999 426.666 383.999 597.332 170.667 682.665M279.85 383.999C321.877 496.127 417.962 598.356 554.666 663.934"></path></g><path    stroke="rgba(16, 22, 31, 1.00)" stroke-width="35" stroke-linejoin="round" stroke-linecap="round"  d="M469.333 853.332L661.333 426.666L853.332 853.332M526.933 725.332L795.732 725.332M810.666 85.3332L816.212 101.461C818.311 107.609 820.753 113.618 823.538 119.487C826.323 125.357 829.432 131.049 832.865 136.563C836.301 142.077 840.038 147.378 844.078 152.466C848.117 157.553 852.433 162.394 857.027 166.988C861.618 171.583 866.456 175.902 871.542 179.943C876.628 183.985 881.929 187.725 887.444 191.162C892.957 194.598 898.648 197.71 904.515 200.497C910.382 203.284 916.389 205.728 922.537 207.829L938.665 213.333L922.537 218.88C916.389 220.978 910.382 223.419 904.511 226.204C898.644 228.989 892.951 232.099 887.435 235.533C881.92 238.967 876.62 242.705 871.534 246.745C866.445 250.785 861.604 255.101 857.01 259.694C852.416 264.287 848.098 269.126 844.056 274.212C840.015 279.298 836.274 284.597 832.835 290.11C829.399 295.623 826.287 301.313 823.5 307.182C820.715 313.049 818.272 319.057 816.17 325.205L810.666 341.333L805.119 325.205C803.02 319.056 800.578 313.048 797.793 307.179C795.008 301.309 791.9 295.617 788.466 290.103C785.03 284.589 781.293 279.288 777.253 274.2C773.214 269.113 768.898 264.272 764.304 259.677C759.713 255.083 754.875 250.764 749.789 246.723C744.703 242.681 739.403 238.941 733.887 235.504C728.375 232.067 722.684 228.956 716.816 226.169C710.948 223.382 704.941 220.938 698.794 218.837L682.666 213.333L698.794 207.786C704.941 205.688 710.95 203.247 716.82 200.462C722.688 197.677 728.38 194.567 733.896 191.133C739.411 187.698 744.712 183.961 749.797 179.921C754.886 175.881 759.727 171.565 764.321 166.972C768.915 162.379 773.233 157.54 777.275 152.454C781.317 147.368 785.057 142.069 788.496 136.556C791.932 131.043 795.044 125.353 797.831 119.484C800.616 113.616 803.059 107.609 805.162 101.461L810.666 85.3332Z"></path></svg>