<svg xmlns="http://www.w3.org/2000/svg" xmlns:xlink="http://www.w3.org/1999/xlink" width="1212" height="264" viewBox="0 0 1212 264" fill="none"><g  clip-path="url(#clip-path-0_3)"><g opacity="0.3"><path    stroke="rgba(16, 22, 31, 1.00)" stroke-width="10" stroke-linejoin="round" stroke-linecap="round"  d="M47.8333 71.7499L155.458 71.7499M107.625 47.8333L107.625 71.7499M143.5 71.7499C143.5 119.583 107.625 167.416 47.8333 191.333M78.4347 107.625C90.2136 139.051 117.144 167.703 155.458 186.083"></path></g><path    stroke="rgba(16, 22, 31, 1.00)" stroke-width="10" stroke-linejoin="round" stroke-linecap="round"  d="M131.542 239.167L185.354 119.583L239.167 239.167M147.685 203.292L223.023 203.292M227.208 23.9167L228.763 28.4369C229.351 30.1601 230.036 31.8442 230.816 33.4892C231.597 35.1342 232.468 36.7295 233.43 38.275C234.393 39.8205 235.441 41.3062 236.573 42.7321C237.705 44.1579 238.915 45.5147 240.202 46.8025C241.489 48.0903 242.845 49.3006 244.27 50.4334C245.696 51.5662 247.181 52.6144 248.727 53.5776C250.272 54.5409 251.868 55.413 253.512 56.1941C255.156 56.9752 256.84 57.6602 258.563 58.249L263.083 59.7916L258.563 61.3462C256.84 61.9343 255.156 62.6186 253.511 63.3991C251.866 64.1796 250.271 65.0511 248.725 66.0137C247.179 66.9763 245.693 68.0237 244.268 69.1561C242.842 70.2884 241.485 71.4981 240.197 72.7853C238.91 74.0726 237.7 75.4289 236.567 76.8544C235.434 78.2798 234.386 79.765 233.422 81.3102C232.459 82.8553 231.587 84.4502 230.805 86.0949C230.025 87.7396 229.34 89.4234 228.751 91.1464L227.208 95.6666L225.654 91.1464C225.065 89.4232 224.381 87.7391 223.6 86.0941C222.82 84.449 221.949 82.8537 220.986 81.3083C220.023 79.7628 218.976 78.2771 217.844 76.8511C216.712 75.4254 215.502 74.0686 214.214 72.7808C212.928 71.493 211.572 70.2827 210.146 69.1499C208.721 68.017 207.235 66.9689 205.689 66.0057C204.144 65.0424 202.549 64.1703 200.905 63.3892C199.26 62.6081 197.576 61.9231 195.854 61.3343L191.333 59.7916L195.854 58.2371C197.576 57.6489 199.26 56.9647 200.906 56.1842C202.551 55.4036 204.146 54.5321 205.692 53.5696C207.237 52.607 208.723 51.5595 210.148 50.4272C211.575 49.2949 212.932 48.0852 214.219 46.798C215.507 45.5106 216.717 44.1543 217.85 42.7289C218.982 41.3035 220.031 39.8182 220.995 38.2731C221.958 36.728 222.83 35.1331 223.611 33.4883C224.392 31.8437 225.076 30.1599 225.666 28.4369L227.208 23.9167Z"></path><g ><path     fill="#B7B9BB"  d="M341.96 81.46Q344.48 86.08 347.77 92.87Q351.06 99.66 354.63 107.57Q358.2 115.48 361.7 123.74Q365.2 132 368.28 139.28Q371.36 132 374.86 123.74Q378.36 115.48 381.93 107.57Q385.5 99.66 388.79 92.87Q392.08 86.08 394.6 81.46L414.48 81.46Q415.88 91.12 417.07 103.09Q418.26 115.06 419.17 128.01Q420.08 140.96 420.85 153.98Q421.62 167 422.18 178.48L400.9 178.48Q400.48 164.34 399.78 147.68Q399.08 131.02 397.68 114.08Q395.16 119.96 392.08 127.1Q389 134.24 385.99 141.38Q382.98 148.52 380.18 155.03Q377.38 161.54 375.42 166.16L360.16 166.16Q358.2 161.54 355.4 155.03Q352.6 148.52 349.59 141.38Q346.58 134.24 343.5 127.1Q340.42 119.96 337.9 114.08Q336.5 131.02 335.8 147.68Q335.1 164.34 334.68 178.48L313.4 178.48Q313.96 167 314.73 153.98Q315.5 140.96 316.41 128.01Q317.32 115.06 318.51 103.09Q319.7 91.12 321.1 81.46L341.96 81.46ZM461.24 178.48L440.38 178.48L440.38 104.84L461.24 104.84L461.24 178.48ZM463.2 83.56Q463.2 89.3 459.49 92.59Q455.78 95.88 450.74 95.88Q445.7 95.88 441.99 92.59Q438.28 89.3 438.28 83.56Q438.28 77.82 441.99 74.53Q445.7 71.24 450.74 71.24Q455.78 71.24 459.49 74.53Q463.2 77.82 463.2 83.56ZM480.84 107.36Q486.16 105.82 494.56 104.49Q502.96 103.16 512.2 103.16Q521.58 103.16 527.81 105.61Q534.04 108.06 537.68 112.54Q541.32 117.02 542.86 123.18Q544.4 129.34 544.4 136.9L544.4 178.48L523.54 178.48L523.54 139.42Q523.54 129.34 520.88 125.14Q518.22 120.94 510.94 120.94Q508.7 120.94 506.18 121.15Q503.66 121.36 501.7 121.64L501.7 178.48L480.84 178.48L480.84 107.36Z"></path><path     fill="#000000"  d="M636.66 81.46L636.66 100.08L607.4 100.08L607.4 178.48L585.56 178.48L585.56 100.08L556.3 100.08L556.3 81.46L636.66 81.46ZM693.64 123.32Q690.84 122.62 687.06 121.85Q683.28 121.08 678.94 121.08Q676.98 121.08 674.25 121.43Q671.52 121.78 670.12 122.2L670.12 178.48L649.26 178.48L649.26 108.76Q654.86 106.8 662.49 105.05Q670.12 103.3 679.5 103.3Q681.18 103.3 683.56 103.51Q685.94 103.72 688.32 104.07Q690.7 104.42 693.08 104.91Q695.46 105.4 697.14 106.1L693.64 123.32ZM736.48 163.92Q739.56 163.92 742.36 163.78Q745.16 163.64 746.84 163.36L746.84 147.54Q745.58 147.26 743.06 146.98Q740.54 146.7 738.44 146.7Q735.5 146.7 732.91 147.05Q730.32 147.4 728.36 148.38Q726.4 149.36 725.28 151.04Q724.16 152.72 724.16 155.24Q724.16 160.14 727.45 162.03Q730.74 163.92 736.48 163.92ZM734.8 102.88Q744.04 102.88 750.2 104.98Q756.36 107.08 760.07 111Q763.78 114.92 765.32 120.52Q766.86 126.12 766.86 132.98L766.86 176.38Q762.38 177.36 754.4 178.69Q746.42 180.02 735.08 180.02Q727.94 180.02 722.13 178.76Q716.32 177.5 712.12 174.63Q707.92 171.76 705.68 167.14Q703.44 162.52 703.44 155.8Q703.44 149.36 706.03 144.88Q708.62 140.4 712.96 137.74Q717.3 135.08 722.9 133.89Q728.5 132.7 734.52 132.7Q738.58 132.7 741.73 133.05Q744.88 133.4 746.84 133.96L746.84 132Q746.84 126.68 743.62 123.46Q740.4 120.24 732.42 120.24Q727.1 120.24 721.92 121.01Q716.74 121.78 712.96 123.18L710.3 106.38Q712.12 105.82 714.85 105.19Q717.58 104.56 720.8 104.07Q724.02 103.58 727.59 103.23Q731.16 102.88 734.8 102.88ZM785.76 107.36Q791.08 105.82 799.48 104.49Q807.88 103.16 817.12 103.16Q826.5 103.16 832.73 105.61Q838.96 108.06 842.6 112.54Q846.24 117.02 847.78 123.18Q849.32 129.34 849.32 136.9L849.32 178.48L828.46 178.48L828.46 139.42Q828.46 129.34 825.8 125.14Q823.14 120.94 815.86 120.94Q813.62 120.94 811.1 121.15Q808.58 121.36 806.62 121.64L806.62 178.48L785.76 178.48L785.76 107.36ZM889.36 163.5Q895.1 163.5 897.48 162.38Q899.86 161.26 899.86 158.04Q899.86 155.52 896.78 153.63Q893.7 151.74 887.4 149.36Q882.5 147.54 878.51 145.58Q874.52 143.62 871.72 140.89Q868.92 138.16 867.38 134.38Q865.84 130.6 865.84 125.28Q865.84 114.92 873.54 108.9Q881.24 102.88 894.68 102.88Q901.4 102.88 907.56 104.07Q913.72 105.26 917.36 106.66L913.72 122.9Q910.08 121.64 905.81 120.66Q901.54 119.68 896.22 119.68Q886.42 119.68 886.42 125.14Q886.42 126.4 886.84 127.38Q887.26 128.36 888.52 129.27Q889.78 130.18 891.95 131.23Q894.12 132.28 897.48 133.54Q904.34 136.06 908.82 138.51Q913.3 140.96 915.89 143.83Q918.48 146.7 919.53 150.2Q920.58 153.7 920.58 158.32Q920.58 169.24 912.39 174.84Q904.2 180.44 889.22 180.44Q879.42 180.44 872.91 178.76Q866.4 177.08 863.88 175.96L867.38 159.02Q872.7 161.12 878.3 162.31Q883.9 163.5 889.36 163.5ZM965.52 179.88Q956.42 179.74 950.75 177.92Q945.08 176.1 941.79 172.81Q938.5 169.52 937.31 164.83Q936.12 160.14 936.12 154.26L936.12 73.2L956.98 69.84L956.98 150.06Q956.98 152.86 957.4 155.1Q957.82 157.34 959.01 158.88Q960.2 160.42 962.44 161.4Q964.68 162.38 968.46 162.66L965.52 179.88ZM1008.5 163.92Q1011.58 163.92 1014.38 163.78Q1017.18 163.64 1018.86 163.36L1018.86 147.54Q1017.6 147.26 1015.08 146.98Q1012.56 146.7 1010.46 146.7Q1007.52 146.7 1004.93 147.05Q1002.34 147.4 1000.38 148.38Q998.42 149.36 997.3 151.04Q996.18 152.72 996.18 155.24Q996.18 160.14 999.47 162.03Q1002.76 163.92 1008.5 163.92ZM1006.82 102.88Q1016.06 102.88 1022.22 104.98Q1028.38 107.08 1032.09 111Q1035.8 114.92 1037.34 120.52Q1038.88 126.12 1038.88 132.98L1038.88 176.38Q1034.4 177.36 1026.42 178.69Q1018.44 180.02 1007.1 180.02Q999.96 180.02 994.15 178.76Q988.34 177.5 984.14 174.63Q979.94 171.76 977.7 167.14Q975.46 162.52 975.46 155.8Q975.46 149.36 978.05 144.88Q980.64 140.4 984.98 137.74Q989.32 135.08 994.92 133.89Q1000.52 132.7 1006.54 132.7Q1010.6 132.7 1013.75 133.05Q1016.9 133.4 1018.86 133.96L1018.86 132Q1018.86 126.68 1015.64 123.46Q1012.42 120.24 1004.44 120.24Q999.12 120.24 993.94 121.01Q988.76 121.78 984.98 123.18L982.32 106.38Q984.14 105.82 986.87 105.19Q989.6 104.56 992.82 104.07Q996.04 103.58 999.61 103.23Q1003.18 102.88 1006.82 102.88ZM1057.08 86.5L1077.94 83.14L1077.94 104.84L1103 104.84L1103 122.2L1077.94 122.2L1077.94 148.1Q1077.94 154.68 1080.25 158.6Q1082.56 162.52 1089.56 162.52Q1092.92 162.52 1096.49 161.89Q1100.06 161.26 1103 160.14L1105.94 176.38Q1102.16 177.92 1097.54 179.04Q1092.92 180.16 1086.2 180.16Q1077.66 180.16 1072.06 177.85Q1066.46 175.54 1063.1 171.41Q1059.74 167.28 1058.41 161.4Q1057.08 155.52 1057.08 148.38L1057.08 86.5ZM1116.44 142.22Q1116.44 132.42 1119.45 125.07Q1122.46 117.72 1127.36 112.82Q1132.26 107.92 1138.63 105.4Q1145 102.88 1151.72 102.88Q1167.4 102.88 1176.5 112.47Q1185.6 122.06 1185.6 140.68Q1185.6 142.5 1185.46 144.67Q1185.32 146.84 1185.18 148.52L1137.86 148.52Q1138.56 154.96 1143.88 158.74Q1149.2 162.52 1158.16 162.52Q1163.9 162.52 1169.43 161.47Q1174.96 160.42 1178.46 158.88L1181.26 175.82Q1179.58 176.66 1176.78 177.5Q1173.98 178.34 1170.55 178.97Q1167.12 179.6 1163.2 180.02Q1159.28 180.44 1155.36 180.44Q1145.42 180.44 1138.07 177.5Q1130.72 174.56 1125.89 169.45Q1121.06 164.34 1118.75 157.34Q1116.44 150.34 1116.44 142.22ZM1165.44 134.24Q1165.3 131.58 1164.53 129.06Q1163.76 126.54 1162.15 124.58Q1160.54 122.62 1158.09 121.36Q1155.64 120.1 1152 120.1Q1148.5 120.1 1145.98 121.29Q1143.46 122.48 1141.78 124.44Q1140.1 126.4 1139.19 128.99Q1138.28 131.58 1137.86 134.24L1165.44 134.24Z"></path></g></g><defs><clipPath id="clip-path-0_3"><path d="M0 264L1212 264L1212 0L0 0L0 264Z" fill="white"/></clipPath></defs></svg>